<svg xmlns="http://www.w3.org/2000/svg" width="118" height="36" fill="none"><path fill="#fff" d="M46.897 16.969c0 5.294 3.638 8.235 7.139 8.235 2.532 0 5.132-1.385 6.622-4.22.069-.175.278-.243.415-.137l3.19 2.042c.102.068.174.242.102.345-2.114 4.326-6.136 6.368-10.158 6.368-5.995 0-12.028-4.463-12.028-12.63 0-8.166 6.033-12.629 12.028-12.629 4.022 0 8.04 2.042 10.158 6.368.069.102 0 .277-.103.345l-3.19 2.042c-.136.102-.345.034-.414-.137-1.49-2.838-4.09-4.22-6.622-4.22-3.532-.007-7.14 2.968-7.14 8.228ZM66.205 23.716c0 5.294 4.577 7.199 8.527 4.672l2.425-1.556c.243-.175.452-.035.452.208v1.765c0 .137.137.277.278.277h3.95c.137 0 .277-.137.277-.277V12.058c0-.137-.137-.277-.277-.277h-3.95c-.137 0-.278.137-.278.277v9.343c0 2.975-1.87 4.394-3.676 4.394-1.665 0-3.223-.865-3.223-3.495V12.058c0-.137-.137-.277-.278-.277h-3.95c-.137 0-.277.137-.277.277v11.658ZM85.513 29.082h3.953c.137 0 .278-.137.278-.277V5.137c0-.137-.137-.277-.278-.277h-3.953c-.137 0-.278.14-.278.277v23.668c0 .137.14.277.278.277ZM105.41 14.305v-2.25c0-.137.137-.277.278-.277h3.953c.137 0 .278.136.278.277v23.668c0 .137-.138.277-.278.277h-3.953c-.137 0-.278-.137-.278-.277v-8.58c0-.277-.312-.38-.521-.175-1.421 1.662-3.398 2.493-5.094 2.493-3.813 0-7.626-3.009-7.626-8.963 0-5.26 3.536-9.1 7.174-9.1.867 0 1.977.277 3.015 1.108l2.6 2.008c.209.136.452.034.452-.21Zm-8.561 6.159c0 2.698 1.905 4.914 4.402 4.914 2.011 0 4.159-2.144 4.159-5.085 0-3.286-2.254-4.983-4.125-4.983-2.22 0-4.436 1.659-4.436 5.154ZM114.979 9.6c1.558 0 2.771-1.177 2.771-2.84 0-1.59-1.213-2.766-2.771-2.766-1.631 0-2.878 1.177-2.878 2.767 0 1.59 1.247 2.838 2.878 2.838Zm-2.011 19.482h3.953c.137 0 .278-.137.278-.277V12.058c0-.137-.138-.277-.278-.277h-3.953c-.137 0-.278.137-.278.277v16.747c0 .137.137.277.278.277Z"/><path fill="#763383" d="M28.578 25.512 18.322 15.276l-3.21 2.992 10.36 10.345 6.491 6.48 3.108-3.101-6.492-6.48Z"/><path fill="#EB6F25" d="M32.987 12.503C31.066 5.14 24.392 0 16.763 0A16.824 16.824 0 0 0 3.145 6.976 16.583 16.583 0 0 0 0 16.733a16.61 16.61 0 0 0 4.375 11.268c-1.528-1.72-2.381-3.864-2.381-6.19 0-2.448.935-4.681 2.47-6.36.22-2.134.98-4.162 2.244-5.917a12.421 12.421 0 0 1 10.055-5.15c5.632 0 10.555 3.793 11.973 9.227.264 1.012.398 2.065.398 3.125 0 2.637-.82 5.15-2.371 7.274l.127-.178 3.138 3.133c2.103-2.876 3.497-6.655 3.497-10.229 0-1.436-.181-2.859-.538-4.233Z"/><path fill="#00A19B" d="M4.817 28.473ZM26.89 23.829l-.127.178a12.48 12.48 0 0 1-2.758 2.742 12.295 12.295 0 0 1-7.242 2.336c-3.34 0-6.472-1.31-8.818-3.686-.97-.961-1.56-2.223-1.56-3.584 0-2.801 2.282-5.079 5.088-5.079 1.412 0 2.727.565 3.697 1.59l3.19-3.012a9.526 9.526 0 0 0-6.887-2.962 9.456 9.456 0 0 0-7.01 3.102 9.427 9.427 0 0 0-2.47 6.36c0 2.326.854 4.47 2.382 6.19.144.158.291.319.442.473a16.653 16.653 0 0 0 11.946 4.992c3.552 0 6.947-1.094 9.815-3.166a16.446 16.446 0 0 0 3.45-3.338l-3.138-3.136Z"/></svg>